<?xml version="1.0" encoding="UTF-8"?><!-- Generator: Adobe Illustrator 23.0.2, SVG Export Plug-In . SVG Version: 6.00 Build 0)  --><svg xmlns="http://www.w3.org/2000/svg" enable-background="new 0 0 277.1 139.29" id="Layer_1" version="1.1" viewBox="0 0 277.1 139.29" x="0px" xml:space="preserve" y="0px">
<g id="change1_1"><path d="m200.81 85.87c0.75 0.27 1.2 1.03 1.07 1.82l-4.38 26.29 75.42-41.55-56.79-67.14-5.19 25.62c-0.17 0.86-1 1.43-1.87 1.29-0.33-0.05-33.19-5.16-73.35 0.96-23.53 3.58-44.93 10.26-63.6 19.85-21.41 10.99-39.26 25.86-53.17 44.26 9.06-3.88 28.36-11.37 53.26-16.73 32.18-6.92 80.63-11.62 128.6 5.33zm-29.49-11.92l-11.15-2.07c-0.05-0.01-0.09-0.02-0.13-0.04-0.46-0.15-0.74-0.62-0.65-1.11 0.1-0.53 0.61-0.89 1.15-0.79l11.15 2.07c0.53 0.1 0.89 0.61 0.79 1.15-0.11 0.53-0.62 0.89-1.16 0.79zm31.9 33.65c-0.04 0.54-0.52 0.94-1.06 0.9-0.08-0.01-0.16-0.02-0.23-0.05-0.42-0.14-0.7-0.55-0.67-1.01l0.8-9.58c0.04-0.54 0.52-0.94 1.06-0.9s0.94 0.52 0.9 1.06l-0.8 9.58zm1.28-13.61c-0.04-0.01-0.09-0.02-0.13-0.03-0.46-0.15-0.75-0.63-0.65-1.12l1.76-9.07c0.1-0.53 0.62-0.88 1.15-0.78s0.88 0.62 0.78 1.15l-1.76 9.07c-0.1 0.53-0.62 0.88-1.15 0.78zm10.94 8.06l-7.92 4.54c-0.25 0.15-0.55 0.17-0.8 0.08-0.22-0.07-0.41-0.23-0.54-0.44-0.27-0.47-0.11-1.07 0.36-1.34l7.92-4.54c0.47-0.27 1.07-0.11 1.34 0.36s0.11 1.07-0.36 1.34zm25.52-15.01l-7.83 4.52c-0.25 0.15-0.55 0.17-0.81 0.08-0.22-0.07-0.41-0.22-0.54-0.44-0.27-0.47-0.11-1.07 0.36-1.34l7.83-4.52c0.47-0.27 1.07-0.11 1.34 0.36 0.28 0.46 0.12 1.07-0.35 1.34zm27.06-15.68c0.23 0.49 0.01 1.08-0.49 1.3l-8.43 3.86c-0.24 0.11-0.49 0.11-0.72 0.04-0.25-0.08-0.46-0.27-0.58-0.52-0.23-0.49-0.01-1.08 0.49-1.3l8.43-3.86c0.49-0.23 1.08-0.01 1.3 0.48zm-11.28-13.41c0.42-0.35 1.04-0.29 1.39 0.13 7.53 9.11 7.6 9.48 7.66 9.77 0.1 0.53-0.25 1.05-0.78 1.15-0.17 0.03-0.34 0.02-0.5-0.03-0.26-0.09-0.48-0.28-0.59-0.54-0.42-0.68-4.05-5.16-7.3-9.09-0.35-0.43-0.29-1.05 0.12-1.39zm-10.17-11.29c0.42-0.34 1.04-0.28 1.38 0.14l5.93 7.27c0.34 0.42 0.28 1.04-0.14 1.38-0.27 0.22-0.63 0.27-0.94 0.17-0.17-0.06-0.33-0.16-0.45-0.31l-5.93-7.27c-0.34-0.41-0.27-1.03 0.15-1.38zm-1.41 35.57l8.66-4.69c0.48-0.26 1.08-0.08 1.33 0.4 0.26 0.48 0.08 1.08-0.4 1.33l-8.66 4.69c-0.25 0.14-0.53 0.15-0.78 0.07-0.23-0.08-0.43-0.24-0.55-0.46-0.25-0.49-0.08-1.09 0.4-1.34zm-8.49-48.28c0.42-0.35 1.04-0.29 1.39 0.12 6.31 7.54 6.46 8.21 6.52 8.47 0.12 0.53-0.22 1.06-0.75 1.17-0.18 0.04-0.36 0.03-0.52-0.03-0.29-0.1-0.52-0.32-0.62-0.62-0.35-0.68-3.37-4.44-6.13-7.73-0.36-0.41-0.31-1.03 0.11-1.38zm-14.18-16.81c0.42-0.35 1.04-0.3 1.39 0.12l8.11 9.62c0.35 0.42 0.3 1.04-0.12 1.39-0.27 0.23-0.63 0.29-0.95 0.18-0.17-0.06-0.32-0.16-0.44-0.3l-8.11-9.62c-0.35-0.42-0.3-1.04 0.12-1.39zm-2.78 80.23l8.08-4.5c0.48-0.26 1.08-0.09 1.34 0.38s0.09 1.07-0.38 1.34l-8.08 4.5c-0.25 0.14-0.54 0.16-0.79 0.07-0.22-0.08-0.42-0.23-0.55-0.45-0.26-0.47-0.09-1.07 0.38-1.34zm-4.45-77.53l1.56-8.36c0.1-0.53 0.61-0.89 1.15-0.79s0.89 0.61 0.79 1.15l-1.56 8.36c-0.1 0.53-0.61 0.89-1.15 0.79-0.05-0.01-0.09-0.02-0.13-0.03-0.47-0.16-0.75-0.63-0.66-1.12zm-0.52 4.44c0.09-0.54 0.6-0.9 1.14-0.81s0.9 0.6 0.8 1.14l-1.25 7.34c-0.09 0.54-0.6 0.9-1.14 0.81-0.05-0.01-0.1-0.02-0.15-0.04-0.45-0.15-0.74-0.61-0.66-1.1l1.26-7.34zm-8.6 11.83l6.49 0.25c0.54 0.02 0.97 0.48 0.95 1.02s-0.48 0.97-1.02 0.95l-6.49-0.25c-0.1 0-0.19-0.02-0.28-0.05-0.4-0.14-0.69-0.52-0.67-0.97 0.02-0.55 0.48-0.97 1.02-0.95zm-1.78 45.53c-0.17 0.52-0.73 0.79-1.25 0.62l-10.96-3.68c-0.52-0.17-0.79-0.73-0.62-1.25s0.73-0.79 1.25-0.62l10.96 3.68c0.51 0.18 0.79 0.74 0.62 1.25zm-15.24-47.39l9.32 0.3c0.54 0.02 0.97 0.47 0.95 1.02-0.02 0.54-0.47 0.97-1.02 0.95l-9.32-0.3c-0.1 0-0.19-0.02-0.28-0.05-0.4-0.13-0.68-0.52-0.67-0.96 0.02-0.55 0.48-0.98 1.02-0.96zm-1.2 42.77c-0.14 0.53-0.68 0.84-1.21 0.69l-9.68-2.61c-0.02-0.01-0.04-0.01-0.06-0.02-0.49-0.16-0.77-0.68-0.64-1.19 0.14-0.53 0.68-0.84 1.21-0.69l9.68 2.61c0.52 0.14 0.84 0.69 0.7 1.21zm-21.58-42.4l14.05-1.2c0.54-0.05 1.02 0.36 1.06 0.9 0.05 0.54-0.36 1.02-0.9 1.06l-14.05 1.2c-0.14 0.01-0.27-0.01-0.4-0.05-0.36-0.12-0.63-0.45-0.67-0.85-0.03-0.54 0.37-1.01 0.91-1.06zm-21.6 1.76l14.98-1.66c0.54-0.06 1.03 0.33 1.09 0.87s-0.33 1.03-0.87 1.09l-14.98 1.66c-0.15 0.02-0.29 0-0.42-0.04-0.35-0.12-0.62-0.43-0.66-0.82-0.07-0.55 0.32-1.04 0.86-1.1zm-5.01 32.65l12.97 0.5c0.54 0.02 0.97 0.48 0.95 1.02s-0.48 0.97-1.02 0.95l-12.97-0.5c-0.1 0-0.19-0.02-0.28-0.05-0.4-0.14-0.69-0.52-0.67-0.97 0.02-0.55 0.48-0.97 1.02-0.95zm-13.98-28.83l11.55-2.04c0.53-0.09 1.05 0.26 1.14 0.8 0.1 0.54-0.26 1.05-0.8 1.14l-11.55 2.04c-0.17 0.03-0.33 0.02-0.48-0.04-0.33-0.11-0.59-0.39-0.66-0.76-0.09-0.53 0.26-1.04 0.8-1.14zm-3.94 28.47l12.97 0.42c0.54 0.02 0.97 0.47 0.95 1.02-0.02 0.54-0.47 0.97-1.02 0.95l-12.97-0.42c-0.1 0-0.19-0.02-0.28-0.05-0.4-0.13-0.68-0.52-0.67-0.96 0.02-0.55 0.47-0.98 1.02-0.96zm-14.86-24.84l11.67-2.9c0.53-0.13 1.06 0.19 1.19 0.72s-0.19 1.06-0.72 1.19l-11.67 2.9c-0.19 0.05-0.38 0.04-0.55-0.02-0.31-0.1-0.56-0.36-0.64-0.7-0.13-0.52 0.19-1.06 0.72-1.19zm-0.58 26.85l10.6-1.66c0.54-0.08 1.04 0.28 1.12 0.82s-0.28 1.04-0.82 1.12l-10.6 1.66c-0.16 0.02-0.32 0.01-0.47-0.04-0.34-0.11-0.6-0.41-0.66-0.78-0.07-0.53 0.3-1.03 0.83-1.12zm-18.87-20.29l10.59-4.3c0.51-0.2 1.08 0.04 1.28 0.54s-0.04 1.08-0.54 1.28l-10.59 4.3c-0.23 0.09-0.47 0.09-0.68 0.02-0.26-0.09-0.49-0.29-0.6-0.56-0.21-0.5 0.04-1.08 0.54-1.28zm-0.89 21.15l12.91-1.41c0.54-0.06 1.03 0.33 1.09 0.87s-0.33 1.03-0.87 1.09l-12.92 1.41c-0.15 0.02-0.29 0-0.42-0.04-0.35-0.12-0.62-0.43-0.67-0.83-0.05-0.54 0.34-1.03 0.88-1.09zm-33.42-4.78l7.61-4.24c0.48-0.26 1.07-0.09 1.34 0.38 0.26 0.47 0.09 1.07-0.38 1.34l-7.61 4.24c-0.25 0.14-0.54 0.16-0.79 0.07-0.22-0.08-0.42-0.23-0.55-0.45-0.27-0.48-0.1-1.08 0.38-1.34zm-13.96 9.87l7.69-5.64c0.44-0.32 1.05-0.23 1.38 0.21 0.32 0.44 0.23 1.05-0.21 1.38l-7.69 5.64c-0.27 0.2-0.6 0.24-0.9 0.14-0.19-0.06-0.35-0.18-0.48-0.35-0.33-0.44-0.23-1.06 0.21-1.38zm4.1 5.39l-10.91 4.69c-0.23 0.1-0.48 0.1-0.7 0.03-0.26-0.09-0.48-0.28-0.59-0.54-0.21-0.5 0.02-1.08 0.52-1.29l10.91-4.69c0.5-0.22 1.08 0.02 1.29 0.52 0.21 0.49-0.02 1.07-0.52 1.28zm19.56-5.31l-13.91 3.45c-0.19 0.05-0.38 0.04-0.55-0.02-0.31-0.1-0.56-0.36-0.64-0.7-0.13-0.53 0.19-1.06 0.72-1.19l13.91-3.45c0.53-0.13 1.06 0.19 1.19 0.72s-0.2 1.06-0.72 1.19zm6.21-16.3c-0.24-0.08-0.45-0.25-0.57-0.5-0.24-0.49-0.04-1.08 0.45-1.32l10.96-5.41c0.49-0.24 1.08-0.04 1.32 0.45s0.04 1.08-0.45 1.32l-10.96 5.41c-0.25 0.12-0.51 0.13-0.75 0.05zm2.45 15.3c-0.34-0.11-0.61-0.41-0.66-0.79-0.08-0.54 0.29-1.04 0.83-1.12l9.21-1.34c0.54-0.08 1.04 0.29 1.12 0.83s-0.29 1.04-0.83 1.12l-9.21 1.34c-0.16 0.02-0.32 0.01-0.46-0.04z" fill="#A9E3D7"/></g>
<g id="change2_1">
	<path d="m216.44 0.58c-0.41-0.48-1.05-0.69-1.66-0.53s-1.08 0.65-1.2 1.26l-0.09 0.43-16.4 13.21c-0.2 0.16-0.33 0.39-0.36 0.64l-1.53 11.91c-13.55-0.92-35.38-1.33-59.89 2.4-23.9 3.63-45.65 10.42-64.66 20.17-23.8 12.21-43.31 29.13-58 50.29-0.16 0.22-0.25 0.48-0.28 0.73l-12.25 22.39c-0.2 0.37-0.15 0.82 0.13 1.13 0.12 0.13 0.26 0.22 0.41 0.27 0.22 0.08 0.47 0.07 0.7-0.03 57.16-24.52 102.8-29.26 131.02-28.91 27.21 0.34 43.9 5.33 47.36 6.47l-1.45 35.86v0.03c0 0.06 0 0.12 0.02 0.18 0 0.02 0.01 0.05 0.02 0.07 0.01 0.05 0.03 0.1 0.05 0.15l0.03 0.06c0.03 0.06 0.07 0.12 0.11 0.17l0.01 0.01c0.04 0.05 0.09 0.1 0.15 0.14 0.01 0 0.01 0.01 0.02 0.01l0.02 0.02c0.07 0.05 0.15 0.09 0.24 0.12h0.01c0.01 0 0.03 0 0.04 0.01 0.08 0.02 0.15 0.04 0.23 0.04h0.09c0.06 0 0.13-0.01 0.19-0.03 0.03-0.01 0.07-0.02 0.1-0.03 0.02-0.01 0.04-0.01 0.06-0.02l27.82-12.06 56.75-24.6c0.24-0.1 0.42-0.3 0.52-0.53l11.08-27.46 0.4-0.22c0.43-0.24 0.73-0.66 0.82-1.14s-0.04-0.98-0.36-1.36l-60.27-71.25zm-17.8 15.65l14.25-11.47-1.23 6.06-13.46 8.84 0.44-3.43zm-0.77 6l13.24-8.69-1.78 8.77-11.97 3.94 0.51-4.02zm11.01 2.3l-0.85 4.21c-1.72-0.23-4.83-0.6-9.05-0.95l9.9-3.26zm-136.77 28.48c18.67-9.59 40.07-16.27 63.6-19.85 40.16-6.12 73.02-1.01 73.35-0.96 0.87 0.14 1.69-0.43 1.87-1.29l5.19-25.62 56.79 67.14-75.42 41.55 4.38-26.29c0.13-0.79-0.32-1.55-1.07-1.82-47.97-16.95-96.42-12.24-128.6-5.32-24.91 5.36-44.2 12.85-53.26 16.73 13.92-18.41 31.77-33.28 53.17-44.27zm109.15 60.87l0.18-4.53 15.56-12.37-1.01 6.06-14.73 10.84zm14.27-8.05l-1.11 6.67-13.5 9.99 0.25-6.09 14.36-10.57zm-13.98 0.93l0.16-3.89 16.4-12.5-0.62 3.71-15.94 12.68zm-178.34 15.18l10.44-19.06c0.36 0.08 0.74 0.05 1.09-0.12 0.06-0.03 1.66-0.81 4.57-2.07l-9.06 18.37c-2.33 0.93-4.67 1.88-7.04 2.88zm9.76-3.96l9.11-18.47c1.66-0.69 3.59-1.47 5.76-2.32l-7.65 18.04c-2.38 0.88-4.78 1.79-7.22 2.75zm9.76-3.68l7.67-18.08c1.69-0.64 3.51-1.3 5.44-1.98l-6.68 17.8c-2.12 0.72-4.27 1.48-6.43 2.26zm8.83-3.07l6.69-17.83c2.7-0.93 5.6-1.88 8.68-2.83l-6.84 17.92c-2.8 0.86-5.65 1.77-8.53 2.74zm10.92-3.48l6.84-17.92c2.19-0.66 4.47-1.31 6.82-1.96l-8.1 18.25c-1.83 0.52-3.69 1.06-5.56 1.63zm8.02-2.32l8.09-18.23c2.32-0.62 4.72-1.23 7.18-1.82l-9.1 18.4c-2.04 0.53-4.1 1.08-6.17 1.65zm8.67-2.28l9.08-18.36c1.53-0.35 3.08-0.71 4.65-1.04 0.38-0.08 0.78-0.16 1.16-0.24l-8.26 18.06c-2.17 0.49-4.39 1.03-6.63 1.58zm9.05-2.12l8.24-18.02c2.42-0.49 4.93-0.96 7.51-1.41l-9.08 18.03c-2.19 0.44-4.42 0.91-6.67 1.4zm9.11-1.87l9.05-17.97c1.76-0.29 3.54-0.57 5.36-0.84l-7.68 17.6c-2.21 0.37-4.45 0.77-6.73 1.21zm9.04-1.59l7.65-17.53c1.81-0.25 3.65-0.49 5.52-0.71l-6.77 17.28c-2.09 0.29-4.22 0.61-6.4 0.96zm8.64-1.26l6.75-17.23c2.11-0.23 4.26-0.44 6.43-0.62l-9 17.33c-1.37 0.16-2.76 0.33-4.18 0.52zm6.55-0.79l8.96-17.25c2.08-0.16 4.19-0.29 6.33-0.4l-8.23 16.98c-2.3 0.19-4.65 0.41-7.06 0.67zm9.32-0.84l8.2-16.91c2.73-0.12 5.49-0.19 8.29-0.21l-9.35 16.69c-2.3 0.1-4.68 0.25-7.14 0.43zm9.45-0.53l9.3-16.61c2.02 0 4.05 0.03 6.1 0.08l-8.45 16.36c-2.22 0.02-4.54 0.08-6.95 0.17zm12.21-0.17c-0.99-0.01-2-0.02-3.03-0.02l8.41-16.29c2.56 0.09 5.14 0.22 7.74 0.4l-12.74 15.91c-0.13 0.01-0.25 0.01-0.38 0zm2.86 0.06l12.64-15.79c2.06 0.16 4.13 0.35 6.21 0.57l-10.47 15.59c-2.68-0.17-5.48-0.29-8.38-0.37zm10.65 0.53l10.4-15.5c3.04 0.36 6.1 0.78 9.17 1.27l-12.92 14.83c-2.13-0.23-4.34-0.43-6.65-0.6zm9.03 0.87l12.84-14.72c2.13 0.37 4.26 0.78 6.4 1.22l-12.01 14.49c-2.26-0.35-4.67-0.69-7.23-0.99zm9.48 1.36l11.94-14.41c2.08 0.45 4.17 0.95 6.27 1.48l-14.13 13.69c-1.29-0.26-2.65-0.51-4.08-0.76zm6.41 1.24l14.04-13.6c1.41 0.37 2.82 0.76 4.24 1.17l-12.96 13.71c-1.54-0.42-3.32-0.85-5.32-1.28zm7.46 1.88l12.93-13.68c2.09 0.63 4.19 1.3 6.28 2.01l-16.49 12.57c-0.01-0.01-0.02-0.01-0.03-0.02-0.73-0.27-1.63-0.57-2.69-0.88zm2.38 25.1l13.14-9.72-0.25 1.48c-0.04 0.24-0.01 0.48 0.05 0.71l-13.36 17.72 0.42-10.19zm1.51 10.91l13.01-17.25c0.27 0 0.54-0.06 0.79-0.19l5.85-3.22-8.63 15.89-11.02 4.77zm24.06-10.44l-10.11 4.38 8.9-16.38 9.04-4.98-7.83 16.98zm2.71-1.17l8.02-17.4 5.92-3.26-5.75 17.12-8.19 3.54zm10.61-4.6l5.87-17.47 7.15-3.94-6.87 18.74-6.15 2.67zm8.64-3.75l7-19.1 6.96-3.84-6.65 19.77-7.31 3.17zm9.76-4.23l6.76-20.12 7.89-4.35-7.13 21.2-7.52 3.27zm9.96-4.31l7.25-21.55 7.42-4.09-7.59 22.57-7.08 3.07zm15.04-6.52l-5.53 2.4 7.71-22.92 7.85-4.32-10.03 24.84z" fill="#231F20"/>
</g>
<g fill="#2BCCCA" id="change3_1">
	<path d="m58.59 87.2l-8.09 18.23c2.08-0.57 4.14-1.13 6.17-1.65l9.1-18.4c-2.47 0.6-4.86 1.2-7.18 1.82z" fill="inherit"/>
	<path d="m76.46 83.01l-8.24 18.02c2.26-0.5 4.48-0.97 6.67-1.4l9.08-18.03c-2.58 0.45-5.09 0.92-7.51 1.41z" fill="inherit"/>
	<path d="m119.08 77.77l-8.2 16.91c2.45-0.18 4.84-0.33 7.14-0.44l9.35-16.69c-2.8 0.03-5.57 0.1-8.29 0.22z" fill="inherit"/>
	<path d="m49.32 89.83l-6.84 17.92c1.87-0.56 3.73-1.11 5.56-1.63l8.1-18.25c-2.35 0.65-4.63 1.3-6.82 1.96z" fill="inherit"/>
	<path d="m38.25 93.4l-6.69 17.83c2.88-0.96 5.72-1.88 8.53-2.75l6.84-17.92c-3.08 0.96-5.97 1.91-8.68 2.84z" fill="inherit"/>
	<path d="m101.76 79.08l-6.75 17.23c1.41-0.19 2.81-0.36 4.18-0.52l9-17.33c-2.17 0.19-4.32 0.39-6.43 0.62z" fill="inherit"/>
	<path d="m110.51 78.27l-8.96 17.25c2.41-0.26 4.76-0.48 7.05-0.67l8.23-16.98c-2.12 0.12-4.24 0.25-6.32 0.4z" fill="inherit"/>
	<path d="m94.03 80.04l-7.65 17.53c2.18-0.35 4.31-0.66 6.41-0.95l6.77-17.28c-1.88 0.21-3.72 0.45-5.53 0.7z" fill="inherit"/>
	<path d="m86.38 81.19l-9.05 17.97c2.28-0.43 4.53-0.84 6.73-1.21l7.68-17.6c-1.82 0.27-3.6 0.55-5.36 0.84z" fill="inherit"/>
	<path d="m72.9 83.75c-1.58 0.34-3.12 0.69-4.65 1.04l-9.08 18.36c2.24-0.56 4.46-1.09 6.64-1.59l8.26-18.06c-0.39 0.09-0.78 0.17-1.17 0.25z" fill="inherit"/>
	<path d="m208.88 24.53l-9.9 3.26c4.22 0.35 7.33 0.72 9.05 0.95l0.85-4.21z" fill="inherit"/>
	<polygon fill="inherit" points="197 96.98 181.45 109.36 181.26 113.88 195.99 103.04"/>
	<polygon fill="inherit" points="212.89 4.76 198.64 16.23 198.2 19.66 211.66 10.82"/>
	<path d="m22.09 99.51l-9.11 18.47c2.43-0.95 4.84-1.86 7.22-2.75l7.65-18.04c-2.17 0.84-4.1 1.62-5.76 2.32z" fill="inherit"/>
	<path d="m14.74 102.76c-0.35 0.17-0.73 0.2-1.09 0.12l-10.44 19.06c2.37-1 4.71-1.95 7.03-2.88l9.06-18.37c-2.9 1.26-4.5 2.04-4.56 2.07z" fill="inherit"/>
	<polygon fill="inherit" points="180.91 122.49 194.42 112.5 195.53 105.83 181.16 116.4"/>
	<path d="m30.4 96.22l-7.67 18.08c2.16-0.78 4.31-1.54 6.43-2.27l6.68-17.8c-1.93 0.69-3.75 1.35-5.44 1.99z" fill="inherit"/>
	<polygon fill="inherit" points="198.11 90.37 181.71 102.86 181.55 106.76 197.49 94.08"/>
	<polygon fill="inherit" points="211.11 13.54 197.87 22.23 197.35 26.25 209.33 22.31"/>
	<polygon fill="inherit" points="235.35 96.87 228.34 115.97 235.67 112.8 242.31 93.03"/>
	<polygon fill="inherit" points="217.11 106.92 209.09 124.32 217.27 120.77 223.02 103.66"/>
	<polygon fill="inherit" points="225.57 102.25 219.7 119.72 225.85 117.05 232.72 98.32"/>
	<polygon fill="inherit" points="205.16 113.5 196.27 129.88 206.38 125.49 214.2 108.52"/>
	<path d="m196.11 118.48c-0.25 0.14-0.52 0.19-0.79 0.19l-13.01 17.25 11.02-4.78 8.63-15.89-5.85 3.23z" fill="inherit"/>
	<polygon fill="inherit" points="244.86 91.63 238.1 111.74 245.63 108.48 252.75 87.28"/>
	<polygon fill="inherit" points="257.57 103.3 263.1 100.91 273.12 76.06 265.27 80.38"/>
	<polygon fill="inherit" points="255.3 85.88 248.06 107.43 255.14 104.36 262.73 81.79"/>
	<path d="m176.5 82.39l-11.94 14.41c1.43 0.25 2.79 0.5 4.08 0.75l14.13-13.69c-2.1-0.52-4.19-1.02-6.27-1.47z" fill="inherit"/>
	<path d="m137.92 77.68l-8.41 16.29c1.03 0 2.05 0 3.03 0.02 0.13 0 0.25 0 0.38 0.01l12.74-15.91c-2.6-0.19-5.19-0.32-7.74-0.41z" fill="inherit"/>
	<path d="m156.45 79.07l-10.4 15.5c2.31 0.17 4.52 0.37 6.65 0.6l12.93-14.82c-3.08-0.5-6.14-0.92-9.18-1.28z" fill="inherit"/>
	<path d="m148.04 78.25l-12.64 15.79c2.9 0.07 5.7 0.2 8.39 0.37l10.47-15.59c-2.09-0.22-4.16-0.4-6.22-0.57z" fill="inherit"/>
	<path d="m193.7 116.78l0.25-1.48-13.14 9.72-0.41 10.19 13.36-17.72c-0.07-0.23-0.1-0.47-0.06-0.71z" fill="inherit"/>
	<path d="m167.92 80.72l-12.84 14.72c2.56 0.3 4.97 0.64 7.23 1l12.01-14.49c-2.14-0.45-4.28-0.86-6.4-1.23z" fill="inherit"/>
	<path d="m181.15 100.82l16.49-12.57c-2.09-0.71-4.19-1.38-6.28-2.01l-12.93 13.68c1.06 0.32 1.96 0.61 2.69 0.88 0.01 0 0.01 0.01 0.03 0.02z" fill="inherit"/>
	<path d="m129.63 77.54l-9.3 16.61c2.41-0.09 4.73-0.15 6.95-0.17l8.45-16.36c-2.05-0.05-4.08-0.08-6.1-0.08z" fill="inherit"/>
	<path d="m185.01 84.44l-14.04 13.6c2 0.43 3.78 0.86 5.32 1.28l12.96-13.71c-1.42-0.41-2.83-0.8-4.24-1.17z" fill="inherit"/>
	<path d="m215.91 20.95c0.04 0.01 0.09 0.03 0.13 0.03 0.53 0.1 1.05-0.25 1.15-0.79l1.56-8.36c0.1-0.53-0.24-1.04-0.79-1.15-0.53-0.1-1.05 0.25-1.15 0.79l-1.56 8.36c-0.08 0.5 0.2 0.97 0.66 1.12z" fill="inherit"/>
	<path d="m214.14 32.72c0.05 0.02 0.1 0.03 0.15 0.04 0.54 0.09 1.04-0.27 1.14-0.81l1.25-7.34c0.09-0.54-0.27-1.04-0.8-1.14-0.54-0.09-1.04 0.27-1.14 0.81l-1.25 7.34c-0.08 0.49 0.2 0.95 0.65 1.1z" fill="inherit"/>
	<path d="m205.79 38.02c0.09 0.03 0.18 0.05 0.28 0.05l6.49 0.25c0.54 0.02 1-0.4 1.02-0.95 0.02-0.54-0.41-1-0.95-1.02l-6.49-0.25c-0.54-0.02-1 0.4-1.02 0.95-0.02 0.45 0.27 0.84 0.67 0.97z" fill="inherit"/>
	<path d="m188.77 36.17c0.09 0.03 0.18 0.05 0.28 0.05l9.32 0.3c0.54 0.02 1-0.41 1.02-0.95s-0.41-1-0.95-1.02l-9.32-0.3c-0.54-0.02-1 0.41-1.02 0.95-0.01 0.45 0.27 0.83 0.67 0.97z" fill="inherit"/>
	<path d="m166.11 36.53c0.12 0.04 0.26 0.06 0.4 0.05l14.05-1.2c0.54-0.05 0.94-0.52 0.9-1.06-0.05-0.54-0.52-0.94-1.06-0.9l-14.05 1.2c-0.54 0.05-0.94 0.52-0.9 1.06 0.03 0.41 0.3 0.73 0.66 0.85z" fill="inherit"/>
	<path d="m144.53 38.29c0.13 0.04 0.27 0.06 0.42 0.04l14.98-1.66c0.54-0.06 0.93-0.55 0.87-1.09s-0.55-0.93-1.09-0.87l-14.98 1.66c-0.54 0.06-0.93 0.55-0.87 1.09 0.05 0.4 0.32 0.71 0.67 0.83z" fill="inherit"/>
	<path d="m125.61 42.1c0.15 0.05 0.32 0.07 0.48 0.04l11.55-2.04c0.54-0.09 0.89-0.6 0.8-1.14-0.09-0.53-0.61-0.89-1.14-0.8l-11.55 2.04c-0.54 0.09-0.89 0.6-0.8 1.14 0.07 0.37 0.33 0.65 0.66 0.76z" fill="inherit"/>
	<path d="m106.88 45.72c0.17 0.06 0.36 0.07 0.55 0.02l11.67-2.9c0.53-0.13 0.85-0.67 0.72-1.19-0.13-0.53-0.67-0.85-1.19-0.72l-11.67 2.9c-0.53 0.13-0.85 0.67-0.72 1.19 0.08 0.34 0.33 0.6 0.64 0.7z" fill="inherit"/>
	<path d="m87.56 52.23c0.21 0.07 0.46 0.07 0.68-0.02l10.59-4.3c0.5-0.2 0.75-0.78 0.54-1.28-0.2-0.5-0.78-0.75-1.28-0.54l-10.59 4.3c-0.5 0.2-0.75 0.78-0.54 1.28 0.11 0.28 0.34 0.48 0.6 0.56z" fill="inherit"/>
	<path d="m81.26 53.63c-0.24-0.49-0.83-0.69-1.32-0.45l-10.96 5.41c-0.49 0.24-0.69 0.83-0.45 1.32 0.12 0.24 0.33 0.42 0.57 0.5s0.51 0.07 0.75-0.05l10.96-5.41c0.49-0.24 0.69-0.83 0.45-1.32z" fill="inherit"/>
	<path d="m53.35 68.55c0.25 0.09 0.54 0.07 0.79-0.07l7.61-4.24c0.47-0.26 0.65-0.86 0.38-1.34-0.27-0.47-0.86-0.64-1.34-0.38l-7.61 4.24c-0.47 0.26-0.65 0.86-0.38 1.34 0.13 0.22 0.33 0.38 0.55 0.45z" fill="inherit"/>
	<path d="m39.49 78.36c0.29 0.1 0.63 0.06 0.9-0.14l7.69-5.64c0.44-0.32 0.53-0.94 0.21-1.38s-0.94-0.53-1.38-0.21l-7.69 5.64c-0.44 0.32-0.53 0.94-0.21 1.38 0.13 0.17 0.3 0.29 0.48 0.35z" fill="inherit"/>
	<path d="m42.56 80.22l-10.92 4.68c-0.5 0.21-0.73 0.79-0.52 1.29 0.12 0.27 0.34 0.46 0.59 0.54 0.22 0.07 0.47 0.07 0.7-0.03l10.91-4.69c0.5-0.21 0.73-0.79 0.52-1.29-0.2-0.49-0.78-0.72-1.28-0.5z" fill="inherit"/>
	<path d="m62.41 74.8l-13.91 3.46c-0.53 0.13-0.85 0.66-0.72 1.19 0.08 0.34 0.33 0.59 0.64 0.7 0.17 0.06 0.36 0.07 0.55 0.02l13.91-3.45c0.53-0.13 0.85-0.66 0.72-1.19-0.13-0.54-0.66-0.86-1.19-0.73z" fill="inherit"/>
	<path d="m82.05 73.29c-0.08-0.54-0.58-0.91-1.12-0.83l-9.21 1.34c-0.54 0.08-0.91 0.58-0.83 1.12 0.05 0.38 0.32 0.68 0.66 0.79 0.14 0.05 0.3 0.06 0.45 0.04l9.21-1.34c0.54-0.08 0.92-0.58 0.84-1.12z" fill="inherit"/>
	<path d="m86.4 73.46c0.13 0.04 0.27 0.06 0.42 0.04l12.91-1.41c0.54-0.06 0.93-0.54 0.87-1.09-0.06-0.54-0.54-0.93-1.09-0.87l-12.91 1.41c-0.54 0.06-0.93 0.54-0.87 1.09 0.05 0.39 0.32 0.71 0.67 0.83z" fill="inherit"/>
	<path d="m106.21 72.59c0.15 0.05 0.3 0.06 0.47 0.04l10.6-1.66c0.54-0.08 0.9-0.59 0.82-1.12-0.08-0.54-0.59-0.9-1.12-0.82l-10.6 1.66c-0.54 0.08-0.9 0.59-0.82 1.12 0.05 0.37 0.32 0.67 0.65 0.78z" fill="inherit"/>
	<path d="m121.46 70.59c0.09 0.03 0.18 0.05 0.28 0.05l12.97 0.42c0.54 0.02 1-0.41 1.02-0.95s-0.41-1-0.95-1.02l-12.97-0.42c-0.54-0.02-1 0.41-1.02 0.95-0.01 0.45 0.27 0.83 0.67 0.97z" fill="inherit"/>
	<path d="m139.38 70.94c0.09 0.03 0.18 0.05 0.28 0.05l12.97 0.5c0.54 0.02 1-0.4 1.02-0.95 0.02-0.54-0.41-1-0.95-1.02l-12.97-0.5c-0.54-0.02-1 0.4-1.02 0.95-0.02 0.45 0.27 0.84 0.67 0.97z" fill="inherit"/>
	<path d="m171.68 72.01l-11.15-2.07c-0.53-0.1-1.05 0.25-1.15 0.79-0.09 0.49 0.2 0.96 0.65 1.11 0.04 0.01 0.09 0.03 0.13 0.04l11.15 2.07c0.53 0.1 1.05-0.25 1.15-0.79 0.11-0.54-0.24-1.05-0.78-1.15z" fill="inherit"/>
	<path d="m176.34 73.9c-0.14 0.51 0.15 1.02 0.64 1.19 0.02 0.01 0.04 0.01 0.06 0.02l9.68 2.61c0.52 0.14 1.07-0.17 1.21-0.69s-0.18-1.07-0.69-1.21l-9.68-2.61c-0.54-0.15-1.08 0.16-1.22 0.69z" fill="inherit"/>
	<path d="m191.54 77.33c-0.17 0.52 0.1 1.07 0.62 1.25l10.96 3.68c0.52 0.17 1.07-0.1 1.25-0.62s-0.1-1.07-0.62-1.25l-10.96-3.68c-0.52-0.17-1.08 0.11-1.25 0.62z" fill="inherit"/>
	<path d="m206.64 82.99c-0.53-0.1-1.05 0.24-1.15 0.78l-1.76 9.07c-0.1 0.49 0.19 0.97 0.65 1.12 0.04 0.01 0.08 0.03 0.13 0.03 0.53 0.1 1.05-0.24 1.15-0.78l1.76-9.07c0.1-0.53-0.25-1.05-0.78-1.15z" fill="inherit"/>
	<path d="m203.12 96.96c-0.54-0.04-1.02 0.36-1.06 0.9l-0.8 9.58c-0.04 0.46 0.25 0.87 0.67 1.01 0.07 0.02 0.15 0.04 0.23 0.05 0.54 0.04 1.02-0.36 1.06-0.9l0.79-9.58c0.05-0.54-0.35-1.02-0.89-1.06z" fill="inherit"/>
	<path d="m214.46 100.35l-7.92 4.54c-0.47 0.27-0.63 0.87-0.36 1.34 0.12 0.22 0.32 0.37 0.54 0.44 0.26 0.09 0.55 0.07 0.8-0.08l7.92-4.54c0.47-0.27 0.63-0.87 0.36-1.34s-0.87-0.63-1.34-0.36z" fill="inherit"/>
	<path d="m219.88 99.17c0.25 0.09 0.54 0.07 0.79-0.07l8.08-4.5c0.47-0.26 0.65-0.86 0.38-1.34-0.26-0.47-0.86-0.65-1.34-0.38l-8.08 4.5c-0.47 0.26-0.65 0.86-0.38 1.34 0.13 0.22 0.32 0.37 0.55 0.45z" fill="inherit"/>
	<path d="m239.98 85.33l-7.83 4.52c-0.47 0.27-0.63 0.87-0.36 1.34 0.12 0.22 0.32 0.37 0.54 0.44 0.26 0.09 0.55 0.07 0.81-0.08l7.83-4.52c0.47-0.27 0.63-0.87 0.36-1.34-0.28-0.47-0.88-0.63-1.35-0.36z" fill="inherit"/>
	<path d="m245.32 84.02c0.25 0.08 0.53 0.07 0.78-0.07l8.66-4.69c0.48-0.26 0.66-0.86 0.4-1.33-0.26-0.48-0.86-0.66-1.33-0.4l-8.66 4.69c-0.48 0.26-0.66 0.86-0.4 1.33 0.12 0.24 0.32 0.4 0.55 0.47z" fill="inherit"/>
	<path d="m257.8 76.05c0.12 0.26 0.33 0.44 0.58 0.52 0.23 0.08 0.49 0.07 0.72-0.04l8.43-3.86c0.49-0.23 0.71-0.81 0.49-1.3-0.23-0.49-0.81-0.71-1.3-0.48l-8.43 3.86c-0.5 0.22-0.71 0.8-0.49 1.3z" fill="inherit"/>
	<path d="m263.92 68.43c0.11 0.26 0.33 0.46 0.59 0.54 0.16 0.05 0.33 0.07 0.5 0.03 0.53-0.1 0.88-0.62 0.78-1.15-0.06-0.29-0.13-0.66-7.66-9.77-0.34-0.42-0.97-0.48-1.39-0.13s-0.48 0.97-0.13 1.39c3.26 3.93 6.88 8.41 7.31 9.09z" fill="inherit"/>
	<path d="m252.35 55.32c0.12 0.15 0.28 0.25 0.45 0.31 0.31 0.1 0.66 0.05 0.94-0.17 0.42-0.34 0.48-0.96 0.14-1.38l-5.93-7.27c-0.34-0.42-0.96-0.49-1.38-0.14-0.42 0.34-0.48 0.96-0.14 1.38l5.92 7.27z" fill="inherit"/>
	<path d="m242.68 43.06c0.1 0.3 0.34 0.53 0.62 0.62 0.16 0.06 0.34 0.07 0.52 0.03 0.53-0.12 0.87-0.64 0.75-1.17-0.06-0.25-0.2-0.93-6.52-8.47-0.35-0.42-0.97-0.47-1.39-0.12s-0.47 0.97-0.12 1.39c2.76 3.28 5.79 7.04 6.14 7.72z" fill="inherit"/>
	<path d="m230.48 28.14c0.12 0.14 0.27 0.24 0.44 0.3 0.31 0.11 0.68 0.05 0.95-0.18 0.42-0.35 0.47-0.97 0.12-1.39l-8.11-9.62c-0.35-0.41-0.97-0.47-1.39-0.12s-0.47 0.97-0.12 1.39l8.11 9.62z" fill="inherit"/>
</g>
</svg>